<?xml version="1.0" encoding="UTF-8"?>
<svg width="100" height="100" viewBox="0 0 100 100" xmlns="http://www.w3.org/2000/svg">
  <defs>
    <pattern id="circuit" x="0" y="0" width="100" height="100" patternUnits="userSpaceOnUse">
      <!-- Horizontal lines -->
      <path d="M0 20h100M0 40h100M0 60h100M0 80h100" stroke="currentColor" stroke-width="0.5" fill="none"/>
      <!-- Vertical lines -->
      <path d="M20 0v100M40 0v100M60 0v100M80 0v100" stroke="currentColor" stroke-width="0.5" fill="none"/>
      <!-- Circuit nodes -->
      <circle cx="20" cy="20" r="1" fill="currentColor"/>
      <circle cx="40" cy="20" r="1" fill="currentColor"/>
      <circle cx="60" cy="20" r="1" fill="currentColor"/>
      <circle cx="80" cy="20" r="1" fill="currentColor"/>
      <circle cx="20" cy="40" r="1" fill="currentColor"/>
      <circle cx="40" cy="40" r="1" fill="currentColor"/>
      <circle cx="60" cy="40" r="1" fill="currentColor"/>
      <circle cx="80" cy="40" r="1" fill="currentColor"/>
      <circle cx="20" cy="60" r="1" fill="currentColor"/>
      <circle cx="40" cy="60" r="1" fill="currentColor"/>
      <circle cx="60" cy="60" r="1" fill="currentColor"/>
      <circle cx="80" cy="60" r="1" fill="currentColor"/>
      <circle cx="20" cy="80" r="1" fill="currentColor"/>
      <circle cx="40" cy="80" r="1" fill="currentColor"/>
      <circle cx="60" cy="80" r="1" fill="currentColor"/>
      <circle cx="80" cy="80" r="1" fill="currentColor"/>
    </pattern>
  </defs>
  <rect width="100" height="100" fill="url(#circuit)"/>
</svg> 